# xmcd
# 
# Track frame offsets:
#   150
#   19107
#   35500
#   50980
#   67592
#   80527
#   90907
#   106707
#   123895
#   143550
#   159767
#   173920
#   187602
#   205910
# 
# Disc length: 2961 seconds
# 
# Revision: 0
# Processed by: cddbd v1.5.1PL2 Copyright (c) Steve Scherf et al.
# Submitted via: Synapstar 1.0 
# 
DISCID=9f0b8f0e
DTITLE=Various Artist - SD-Country Hits
DYEAR=1900
DGENRE=Country
TTITLE0=Alan Jackson - I'll Go On Loving You
TTITLE1=LaAnn Rimes - Nothin' New under The Moon
TTITLE2=Tim McGraw - Where The Green Grass Grows
TTITLE3=Shania Twain - Honey I'm Home
TTITLE4=Clint Black - Loosen up My Strings
TTITLE5=Steve Wariner/Garth Brooks - Burnin' The roadhouse Down
TTITLE6=Kenny Chesney - I Will stand
TTITLE7=Dixie Chicks - Wide Open Spaces
TTITLE8=Gary Allan - No Man In his Wrong Heart
TTITLE9=Ty Herndon - It Must Be Love
TTITLE10=Tracy Lawrence - While You Sleep
TTITLE11=Sara Evans - Cryin' Game
TTITLE12=Bryan White - Tree Of Hearts
TTITLE13=Ricochet - Honky Tonk Baby
EXTD=MediaType: Karaoke CD+G Producer: StarDisc
EXTT0=
EXTT1=
EXTT2=
EXTT3=
EXTT4=
EXTT5=
EXTT6=
EXTT7=
EXTT8=
EXTT9=
EXTT10=
EXTT11=
EXTT12=
EXTT13=
PLAYORDER=
